<svg height="447pt" viewBox="0 0 447 447.99882" width="447pt" xmlns="http://www.w3.org/2000/svg"><path d="m72.40625 167.996094c0 4.417968-3.582031 8-8 8s-8-3.582032-8-8c0-4.417969 3.582031-8 8-8s8 3.582031 8 8zm0 0"/><path d="m208.40625 367.996094c0 4.417968-3.582031 8-8 8s-8-3.582032-8-8c0-4.417969 3.582031-8 8-8s8 3.582031 8 8zm0 0"/><path d="m104.40625 351.996094c0 4.417968-3.582031 8-8 8s-8-3.582032-8-8c0-4.417969 3.582031-8 8-8s8 3.582031 8 8zm0 0"/><path d="m136.40625 279.996094c0 4.417968-3.582031 8-8 8s-8-3.582032-8-8c0-4.417969 3.582031-8 8-8s8 3.582031 8 8zm0 0"/><path d="m376.40625 335.996094c0 4.417968-3.582031 8-8 8s-8-3.582032-8-8c0-4.417969 3.582031-8 8-8s8 3.582031 8 8zm0 0"/><path d="m48.40625 247.996094c0 4.417968-3.582031 8-8 8s-8-3.582032-8-8c0-4.417969 3.582031-8 8-8s8 3.582031 8 8zm0 0"/><path d="m448.40625 223.996094c.0625-91.847656-55.988281-174.410156-141.375-208.25-85.382812-33.839844-182.773438-12.085938-245.648438 54.863281.753907 2.042969 1.417969 4 2.351563 6.1875 5.242187 11.71875 15.046875 33.65625 36.191406 44 9.304688 4.203125 19.457031 6.171875 29.65625 5.75 13.128907-1.164063 26.175781 2.992187 36.21875 11.527344 9.804688 9.871093 16.261719 22.578125 18.445313 36.320312 1.746094 8.644531 1.746094 17.550781 0 26.191407-1.5 7.175781-1.5 14.585937 0 21.761718 1.058594 10.394532 5.730468 20.09375 13.199218 27.398438 4.433594 3.300781 9.585938 5.496094 15.035157 6.402344 7.847656.882812 14.859375 5.320312 19.015625 12.039062 2.636718 5.417969 3.058594 11.652344 1.175781 17.375-.890625 2.683594-1.070313 5.550781-.519531 8.320312.855468 3.199219 2.566406 4.3125 9.519531 7.558594 7.265625 3.113282 14.011719 7.320313 20 12.480469 17.441406 16.1875 29.507813 37.328125 34.582031 60.578125.625 3.589844 1.546875 8.941406 4.234375 10.558594 2.4375 1.234375 5.320313 1.234375 7.757813 0 2.96875-1.785156 2.914062-10.6875 2.832031-21.976563-.25-12.015625.199219-24.035156 1.34375-36 2.746094-26.070312 4.730469-44.902343 19.824219-54.015625 15.527344-9.457031 37.832031-3.199218 46.226562-.886718 4.683594 1.328124 9.234375 3.082031 13.597656 5.246093 2.546876 1.535157 5.445313 2.390625 8.417969 2.480469 8.902344.328125 15.566407-5 26.789063-14.183594l19.539062-16.0625c1.019532-8.519531 1.550782-17.085937 1.589844-25.664062zm0 0"/><path d="m437.472656 278.1875c-11.195312 9.160156-21.769531 17.808594-36.457031 17.808594h-.800781c-5.253906-.113282-10.398438-1.5-15-4.039063-3.523438-1.765625-7.207032-3.191406-11-4.257812-5.992188-1.679688-24-6.710938-33.671875-.871094-7.9375 4.800781-9.71875 18.398437-12.207031 42-1.082032 11.378906-1.5 22.8125-1.257813 34.238281.121094 17.015625.199219 29.304688-10.566406 35.777344-7.515625 4.328125-16.773438 4.328125-24.289063 0-6.742187-4.890625-10.988281-12.496094-11.617187-20.800781-4.351563-19.917969-14.640625-38.050781-29.511719-52-4.855469-4.152344-10.320312-7.539063-16.199219-10.046875-8.675781-2.597656-15.5-9.324219-18.222656-17.960938-1.253906-5.277344-1.113281-10.792968.40625-16 .863281-3.769531 1.007813-4.863281.257813-6.28125-.984376-1.871094-2.738282-2.535156-8.671876-4-7.75-1.472656-15.046874-4.746094-21.296874-9.558594-10.421876-9.574218-17.082032-22.550781-18.792969-36.601562-1.890625-9.058594-1.933594-18.402344-.117188-27.476562 1.433594-6.769532 1.472657-13.753907.117188-20.539063-1.539063-10.40625-6.273438-20.078125-13.550781-27.679687-7.578126-6.910157-15.199219-7.085938-25.816407-7.351563-12.511719.390625-24.941406-2.136719-36.3125-7.375-25.785156-12.632813-37.160156-37.121094-43.351562-50.945313-57.546875 71.960938-65.140625 171.824219-19.132813 251.660157 46.007813 79.832031 136.21875 123.332031 227.335938 109.617187 91.113281-13.710937 164.527344-81.839844 184.996094-171.675781zm-397.066406-6.191406c-13.253906 0-24-10.746094-24-24s10.746094-24 24-24 24 10.746094 24 24-10.746094 24-24 24zm24-80c-13.253906 0-24-10.746094-24-24s10.746094-24 24-24 24 10.746094 24 24-10.746094 24-24 24zm32 184c-13.253906 0-24-10.746094-24-24s10.746094-24 24-24 24 10.746094 24 24-10.746094 24-24 24zm32-72c-13.253906 0-24-10.746094-24-24s10.746094-24 24-24 24 10.746094 24 24-10.746094 24-24 24zm72 88c-13.253906 0-24-10.746094-24-24s10.746094-24 24-24 24 10.746094 24 24-10.746094 24-24 24zm168-32c-13.253906 0-24-10.746094-24-24s10.746094-24 24-24 24 10.746094 24 24-10.746094 24-24 24zm0 0"/></svg>